<svg height="140" viewBox="0 0 740 1008" fill="none" xmlns="http://www.w3.org/2000/svg">
<path d="M297.02 907.21H272.846V954.334C272.846 959.128 273.917 962.392 276.059 964.126C278.201 965.758 281.159 966.574 284.933 966.574C287.891 966.574 290.645 966.319 293.195 965.809C295.745 965.197 297.887 964.585 299.621 963.973L300.845 969.94C298.805 970.756 296.306 971.47 293.348 972.082C290.39 972.694 287.126 973 283.556 973C277.436 973 272.795 971.572 269.633 968.716C266.471 965.758 264.89 961.321 264.89 955.405V907.21H251.885V901.09H264.89V878.14H272.846V901.09H297.02V907.21ZM369.603 937.045H318.348V939.187C318.348 948.163 320.745 955.201 325.539 960.301C330.435 965.299 337.065 967.798 345.429 967.798C352.059 967.798 358.281 966.676 364.095 964.432L365.931 970.552C363.279 971.674 360.066 972.541 356.292 973.153C352.62 973.867 348.846 974.224 344.97 974.224C340.176 974.224 335.637 973.51 331.353 972.082C327.171 970.654 323.499 968.461 320.337 965.503C317.175 962.443 314.676 958.618 312.84 954.028C311.004 949.336 310.086 943.726 310.086 937.198C310.086 931.588 310.851 926.488 312.381 921.898C313.911 917.308 316.104 913.432 318.96 910.27C321.816 907.006 325.182 904.507 329.058 902.773C332.934 901.039 337.269 900.172 342.063 900.172C346.143 900.172 349.866 900.937 353.232 902.467C356.7 903.895 359.607 905.986 361.953 908.74C364.401 911.494 366.288 914.809 367.614 918.685C368.94 922.561 369.603 926.845 369.603 931.537V937.045ZM361.341 930.619C361.341 927.661 360.984 924.754 360.27 921.898C359.556 918.94 358.383 916.339 356.751 914.095C355.221 911.851 353.181 910.066 350.631 908.74C348.183 907.312 345.174 906.598 341.604 906.598C335.382 906.598 330.18 908.689 325.998 912.871C321.918 917.053 319.47 922.969 318.654 930.619H361.341ZM424.478 910.117C419.378 907.771 413.819 906.598 407.801 906.598C402.293 906.598 398.162 907.771 395.408 910.117C392.654 912.361 391.277 915.268 391.277 918.838C391.277 922.408 392.45 925.162 394.796 927.1C397.142 928.936 401.273 930.721 407.189 932.455L411.779 933.832C417.593 935.566 422.03 938.116 425.09 941.482C428.15 944.848 429.68 948.979 429.68 953.875C429.68 956.731 429.119 959.434 427.997 961.984C426.875 964.432 425.243 966.574 423.101 968.41C420.959 970.246 418.256 971.674 414.992 972.694C411.83 973.714 408.158 974.224 403.976 974.224C399.386 974.224 395.357 973.816 391.889 973C388.421 972.286 385.361 971.317 382.709 970.093L384.851 963.82C387.503 965.146 390.257 966.166 393.113 966.88C395.969 967.492 399.335 967.798 403.211 967.798C409.025 967.798 413.513 966.676 416.675 964.432C419.837 962.188 421.418 958.975 421.418 954.793C421.418 951.529 420.245 948.724 417.899 946.378C415.655 943.93 411.626 941.788 405.812 939.952L400.916 938.422C388.982 934.648 383.015 928.375 383.015 919.603C383.015 916.747 383.576 914.146 384.698 911.8C385.922 909.352 387.554 907.312 389.594 905.68C391.736 903.946 394.235 902.62 397.091 901.702C400.049 900.682 403.313 900.172 406.883 900.172C410.147 900.172 413.513 900.427 416.981 900.937C420.449 901.447 423.611 902.416 426.467 903.844L424.478 910.117ZM484.535 907.21H460.361V954.334C460.361 959.128 461.432 962.392 463.574 964.126C465.716 965.758 468.674 966.574 472.448 966.574C475.406 966.574 478.16 966.319 480.71 965.809C483.26 965.197 485.402 964.585 487.136 963.973L488.36 969.94C486.32 970.756 483.821 971.47 480.863 972.082C477.905 972.694 474.641 973 471.071 973C464.951 973 460.31 971.572 457.148 968.716C453.986 965.758 452.405 961.321 452.405 955.405V907.21H439.4V901.09H452.405V878.14H460.361V901.09H484.535V907.21Z" fill="#777"/>
<path d="M0 370C0 70 173 0 370 0C567 0 740 70 740 370C740 670 567 740 370 740C173 740 0 670 0 370Z" fill="#FAFA00"/>
<path d="M413.6 545.2C412.2 538.2 411.267 532.367 410.8 527.7C410.8 522.567 410.567 516.733 410.1 510.2C394.233 526.067 377.2 537.733 359 545.2C341.267 552.667 322.833 556.4 303.7 556.4C271.967 556.4 247.467 547.767 230.2 530.5C213.4 513.233 205 492 205 466.8C205 444.4 211.067 425.5 223.2 410.1C235.333 394.233 251.2 381.4 270.8 371.6C290.4 361.333 312.1 353.633 335.9 348.5C359.7 342.9 383.267 339.867 406.6 339.4V300.9C406.6 287.367 404.967 275 401.7 263.8C398.9 252.133 393.533 243.033 385.6 236.5C377.667 229.5 366 226 350.6 226C340.333 226.467 329.833 228.8 319.1 233C308.833 236.733 300.667 242.8 294.6 251.2C298.333 255.4 300.667 260.067 301.6 265.2C302.533 269.867 303 274.067 303 277.8C303 286.2 299.733 295.067 293.2 304.4C286.667 313.267 276.167 317.467 261.7 317C249.1 316.533 239.3 312.1 232.3 303.7C225.767 295.3 222.5 285.267 222.5 273.6C222.5 255.867 228.8 240.467 241.4 227.4C254.467 213.867 271.967 203.367 293.9 195.9C315.833 187.967 340.333 184 367.4 184C407.533 184 438.333 194.5 459.8 215.5C481.267 236.5 491.767 270.1 491.3 316.3C491.3 332.633 491.3 347.567 491.3 361.1C491.3 374.167 491.067 387.467 490.6 401C490.6 414.067 490.6 428.767 490.6 445.1C490.6 452.1 490.367 460.967 489.9 471.7C489.433 481.967 488.733 492.233 487.8 502.5C496.2 501.567 504.6 501.1 513 501.1C521.867 500.633 529.1 500.167 534.7 499.7V545.2H413.6ZM405.9 380.7C391.9 381.633 378.133 383.967 364.6 387.7C351.067 390.967 338.933 395.633 328.2 401.7C317.467 407.767 308.833 415.467 302.3 424.8C296.233 433.667 293.433 443.933 293.9 455.6C294.367 470.067 299.033 480.8 307.9 487.8C316.767 494.333 327.033 497.6 338.7 497.6C352.233 497.6 364.367 494.8 375.1 489.2C386.3 483.6 396.567 476.133 405.9 466.8C405.9 462.133 405.9 457.233 405.9 452.1C405.9 446.967 405.9 441.833 405.9 436.7C405.9 430.167 405.9 422 405.9 412.2C405.9 402.4 405.9 391.9 405.9 380.7Z" fill="white"/>
</svg>
